<svg width="134" height="60" viewBox="0 0 134 60" fill="none" xmlns="http://www.w3.org/2000/svg">
<path d="M63.6075 19.2904C63.6075 18.6088 64.1932 18.058 64.9172 18.058H75.3924C78.2933 18.058 80.5784 18.8088 82.0289 20.1745C83.1903 21.2661 83.7685 22.5972 83.7685 24.2346V24.3038C83.7685 26.1511 83.052 27.4377 82.0188 28.3713C81.408 28.922 81.5588 29.8753 82.2803 30.2902C84.1103 31.3398 85.1837 32.8586 85.1837 35.3258V35.3949C85.1837 39.7637 81.413 41.9469 75.6814 41.9469H64.9147C64.1907 41.9469 63.605 41.3937 63.605 40.7146V19.2904H63.6075ZM74.1983 27.7143C76.6644 27.7143 78.2229 26.9636 78.2229 25.1904V25.1212C78.2229 23.553 76.9183 22.6639 74.5603 22.6639H70.3571C69.6332 22.6639 69.0474 23.2171 69.0474 23.8963V26.4795C69.0474 27.1611 69.6332 27.7119 70.3571 27.7119H74.1983V27.7143ZM75.684 37.3361C78.15 37.3361 79.6382 36.5162 79.6382 34.7429V34.6738C79.6382 33.071 78.3687 32.0807 75.503 32.0807H70.3571C69.6332 32.0807 69.0474 32.6339 69.0474 33.313V36.1013C69.0474 36.7829 69.6332 37.3336 70.3571 37.3336H75.684V37.3361Z" fill="white"/>
<path d="M91.3554 18.058H94.3192C95.0432 18.058 95.6289 18.6112 95.6289 19.2904V40.7096C95.6289 41.3912 95.0432 41.942 94.3192 41.942H91.3554C90.6314 41.942 90.0457 41.3888 90.0457 40.7096V19.2904C90.0457 18.6088 90.6339 18.058 91.3554 18.058Z" fill="white"/>
<path d="M101.979 19.2904C101.979 18.6088 102.564 18.058 103.288 18.058H113.764C116.665 18.058 118.95 18.8088 120.4 20.1745C121.561 21.2661 122.14 22.5972 122.14 24.2346V24.3038C122.14 26.1511 121.423 27.4377 120.39 28.3713C119.779 28.922 119.93 29.8753 120.651 30.2902C122.482 31.3398 123.555 32.8586 123.555 35.3258V35.3949C123.555 39.7637 119.784 41.9469 114.053 41.9469H103.286C102.562 41.9469 101.976 41.3937 101.976 40.7146V19.2904H101.979ZM112.567 27.7143C115.033 27.7143 116.592 26.9636 116.592 25.1904V25.1212C116.592 23.553 115.287 22.6639 112.929 22.6639H108.726C108.002 22.6639 107.416 23.2171 107.416 23.8963V26.4795C107.416 27.1611 108.002 27.7119 108.726 27.7119H112.567V27.7143ZM114.055 37.3361C116.521 37.3361 118.009 36.5162 118.009 34.7429V34.6738C118.009 33.071 116.74 32.0807 113.874 32.0807H108.728C108.004 32.0807 107.419 32.6339 107.419 33.313V36.1013C107.419 36.7829 108.004 37.3336 108.728 37.3336H114.055V37.3361Z" fill="white"/>
<path d="M129.726 18.058H132.69C133.414 18.058 134 18.6112 134 19.2904V40.7096C134 41.3912 133.414 41.942 132.69 41.942H129.726C129.002 41.942 128.417 41.3888 128.417 40.7096V19.2904C128.417 18.6088 129.002 18.058 129.726 18.058Z" fill="white"/>
<path d="M63.738 45.2665H65.5011L66.9373 47.5393L68.3735 45.2665H70.1367V51.1353H68.4769V47.7644L66.9373 50.062H66.9038L65.3726 47.7809V51.1353H63.738V45.2665Z" fill="white"/>
<path d="M74.4982 48.2174V48.2009C74.4982 46.5155 75.8924 45.1484 77.7506 45.1484C79.6087 45.1484 80.9862 46.499 80.9862 48.1844V48.2009C80.9862 49.8864 79.5919 51.2534 77.7338 51.2534C75.8757 51.2534 74.4982 49.9028 74.4982 48.2174ZM79.2818 48.2174V48.2009C79.2818 47.3554 78.6531 46.617 77.7338 46.617C76.8229 46.617 76.211 47.339 76.211 48.1844V48.2009C76.211 49.0464 76.8397 49.7848 77.7506 49.7848C78.6698 49.7848 79.2818 49.0656 79.2818 48.2174Z" fill="white"/>
<path d="M86.5662 46.6911H84.7584V45.2665H90.0422V46.6911H88.2343V51.1353H86.5662V46.6911Z" fill="white"/>
<path d="M93.8087 48.2174V48.2009C93.8087 46.5155 95.203 45.1484 97.0611 45.1484C98.9192 45.1484 100.297 46.499 100.297 48.1844V48.2009C100.297 49.8864 98.9025 51.2534 97.0444 51.2534C95.1862 51.2534 93.8087 49.9028 93.8087 48.2174ZM98.5923 48.2174V48.2009C98.5923 47.3554 97.9636 46.617 97.0444 46.617C96.1335 46.617 95.5215 47.339 95.5215 48.1844V48.2009C95.5215 49.0464 96.1502 49.7848 97.0611 49.7848C97.9832 49.7848 98.5923 49.0656 98.5923 48.2174Z" fill="white"/>
<path d="M105.443 46.6911H103.636V45.2665H108.919V46.6911H107.112V51.1353H105.443V46.6911Z" fill="white"/>
<path d="M114.457 45.2253H116.067L118.632 51.1354H116.844L116.405 50.0868H114.083L113.653 51.1354H111.898L114.457 45.2253ZM115.922 48.8213L115.251 47.1523L114.572 48.8213H115.922ZM115.55 43.4218L117.106 43.883L115.832 44.7806H114.619L115.55 43.4218Z" fill="white"/>
<path d="M124.17 48.1515L122.192 45.2665H124.111L125.179 46.919L126.254 45.2665H128.129L126.151 48.135L128.216 51.1353H126.296L125.142 49.3675L123.98 51.1353H122.105L124.17 48.1515Z" fill="white"/>
<path d="M132.376 45.2665H134.053V51.1353H132.376V45.2665Z" fill="white"/>
<path d="M40.8046 8.80426H4.49475V50.2375H40.8046V8.80426Z" fill="white"/>
<path d="M46.7146 30.6014C44.9172 29.6086 44.7236 27.2945 46.247 25.9214C48.8514 23.5703 50.6613 20.335 50.6613 15.6921V15.5217C50.6613 11.3925 49.2033 8.06092 46.2873 5.31714C42.6397 1.88681 36.8981 0 29.6205 0H3.16492C1.42032 0 0 1.32373 0 2.96357V57.0241C0 58.6664 1.42032 60 3.16492 60H30.3495C44.7236 60 54.2159 54.5125 54.2159 43.5349V43.3768C54.2159 37.0817 51.428 33.2587 46.7146 30.6014ZM5.68881 28.6158C5.54552 27.0105 5.5053 27.1587 7.40827 26.6796C7.40827 26.6796 13.2404 25.136 14.5953 24.7434C15.6888 24.4001 16.7698 24.0691 17.9161 23.7259C17.6949 26.8994 19.1931 28.7738 22.343 29.5937C21.9005 30.9422 20.7819 31.5546 19.6607 32.1054C15.8849 34.0045 11.7572 34.8244 7.57921 35.6468C6.47061 33.3575 5.89746 31.0286 5.68881 28.6158ZM20.1031 24.5977C20.1434 23.1035 21.3399 21.9996 22.9413 21.9996C24.53 21.9996 25.7794 23.2122 25.7417 24.7557C25.7165 26.2622 24.4018 27.4624 22.8382 27.4254C21.2344 27.3661 20.0378 26.1412 20.1031 24.5977ZM23.5144 49.9066C23.2806 50.0177 22.9036 50.0646 22.6547 49.9807C19.4898 48.9385 13.0719 43.4015 10.6235 41.0628C16.5335 40.2305 31.8201 35.0714 40.1007 28.4948C40.063 28.7886 31.6391 46.3774 23.5144 49.9066ZM39.9071 25.0521C39.6985 25.6398 39.3214 26.2029 38.7483 26.7537C38.1877 27.292 37.4712 27.8551 36.5864 28.4676C36.3249 28.6503 36.066 28.8109 35.8171 28.9936C35.063 29.495 34.2686 29.9864 33.4994 30.4384C33.4868 30.4384 33.4868 30.4384 33.4868 30.4384C32.9916 30.7446 32.4586 31.0508 31.9257 31.3324V31.3447C28.6703 33.108 25.259 34.5553 21.7572 35.7925C21.2495 35.963 20.7542 36.1358 20.2464 36.3062C16.7824 37.4571 13.2404 38.4622 9.6481 39.3933C9.5576 39.2575 9.4671 39.0994 9.38666 38.9512C9.20315 38.6573 9.04729 38.3634 8.8663 38.0696C8.7758 37.9214 8.68279 37.7633 8.59229 37.6053C8.8663 37.5435 9.12522 37.4941 9.38666 37.4349C10.1408 37.2645 10.8447 37.1286 11.536 36.9582C11.8477 36.8965 12.1619 36.8224 12.4737 36.7384C12.8909 36.6396 13.3057 36.531 13.7105 36.4322C15.1811 36.0642 16.6265 35.6617 18.0343 35.1332C19.4269 34.6318 20.7693 34.007 22.0313 33.1723C22.1343 33.0982 22.2399 33.0241 22.343 32.9525C22.6673 32.7327 22.9538 32.498 23.2278 32.2536C23.8136 31.6781 24.256 31.0163 24.3867 30.1593C24.4269 29.9148 24.5174 29.7049 24.6205 29.5221C24.7387 29.3394 24.8945 29.1912 25.0755 29.0455C25.1937 28.9714 25.3495 28.8874 25.4928 28.801C25.8825 28.5812 26.2344 28.3243 26.5335 28.0181C26.7548 27.7983 26.9508 27.5637 27.1193 27.2945C27.2374 27.1364 27.3405 26.9512 27.431 26.7685H27.4435C27.886 25.8498 28.0544 24.7829 27.8206 23.7679C27.7678 23.4616 27.6648 23.1554 27.534 22.8491C27.4435 22.6293 27.3254 22.4194 27.2098 22.212C27.079 22.0169 26.9357 21.8193 26.7925 21.6366C25.621 20.2511 23.7206 19.5793 21.7799 20.0683C21.3902 20.1671 20.9981 20.2758 20.6336 20.4116C20.2439 20.5598 19.8794 20.6808 19.4998 20.8413C19.4998 20.8413 19.4998 20.8413 19.4873 20.8413C19.3188 20.9031 19.1227 20.9895 18.9267 21.0611C18.7306 21.1476 18.5496 21.2093 18.3535 21.2809C17.9764 21.4168 17.6119 21.5625 17.2349 21.6736C16.7648 21.8094 16.3098 21.9428 15.8422 22.1033H15.8296C12.5214 23.1332 9.085 24.247 5.82958 25.2027C5.73909 25.0916 5.82958 24.7483 5.82958 24.6273C5.88238 24.3704 5.92008 24.0889 5.9603 23.8321C6.02566 23.5629 6.06337 23.2937 6.12873 23.0368C7.75518 15.9317 13.8487 10.6145 21.4782 10.0515C28.8211 9.50072 35.6185 12.6717 38.9645 20.0362C39.3415 20.8561 39.6155 21.5674 39.8116 22.2046C39.9021 22.5355 39.9951 22.8541 40.0328 23.1603C40.058 23.3431 40.0856 23.5159 40.0982 23.674C40.1158 24.1704 40.0504 24.61 39.9071 25.0521Z" fill="url(#paint0_linear)"/>
<defs>
<linearGradient id="paint0_linear" x1="27.1075" y1="-0.744252" x2="27.1075" y2="59.4807" gradientUnits="userSpaceOnUse">
<stop stop-color="#F89938"/>
<stop offset="1" stop-color="#F26A3B"/>
</linearGradient>
</defs>
</svg>
